Coordinates
version=1
nRows=6
nColumns=36
inDegrees=yes

Units are S.I. units (second, meters, Newtons, ...)
If the header above contains a line with 'inDegrees', this indicates whether rotational values are in degrees (yes) or radians (no).

endheader
time	pelvis_tilt	pelvis_list	pelvis_rotation	pelvis_tx	pelvis_ty	pelvis_tz	hip_flexion_r	hip_adduction_r	hip_rotation_r	knee_angle_r	knee_angle_r_beta	ankle_angle_r	subtalar_angle_r	mtp_angle_r	hip_flexion_l	hip_adduction_l	hip_rotation_l	knee_angle_l	knee_angle_l_beta	ankle_angle_l	subtalar_angle_l	mtp_angle_l	lumbar_extension	lumbar_bending	lumbar_rotation	arm_flex_r	arm_add_r	arm_rot_r	elbow_flex_r	pro_sup_r	arm_flex_l	arm_add_l	arm_rot_l	elbow_flex_l	pro_sup_l
      2.57083330	    -14.62920296	     -3.58095631	      1.13271806	      0.27616541	      1.25161995	     -0.18482041	     12.22131362	     -5.56424618	    -18.26668893	      0.71976392	      0.01256225	    -45.08705851	     -0.16978012	     -7.49999987	     15.78559776	     -9.45340398	     -6.72305874	      0.46634823	      0.00813931	    -48.40001542	      3.31289980	     -7.49999987	     -0.14509966	      3.55005610	      1.69897508	    163.41802117	     -0.36684843	     76.22562132	     21.81959350	     57.63065877	    165.66604223	      2.78703330	     93.66166443	     16.43230601	     54.97362077
      2.57500000	    -14.48191143	     -3.79635514	      1.37610554	      0.28413504	      1.26818312	     -0.18746003	     11.52770503	     -5.45473768	    -18.17299750	      0.81686038	      0.01425690	    -45.61601454	      1.47540992	     -7.49999987	     15.34438801	     -9.37406621	     -7.04248651	      0.67548757	      0.01178948	    -48.26965663	      3.41393821	     -7.49999987	     -0.05065057	      3.97292606	      1.17752880	    163.71646272	     -0.05236763	     76.64144887	     21.19340966	     57.84763084	    165.98407664	      3.38758423	     93.75672125	     15.32973681	     54.82987253
      2.57916670	    -14.36729930	     -3.78696504	      1.74694417	      0.28443773	      1.27752132	     -0.18802897	     11.04968345	     -5.63727073	    -17.44906536	      1.03201671	      0.01801209	    -46.14638837	      3.65003579	     -7.49999987	     15.33336555	     -9.33951216	     -7.40947071	      1.35791245	      0.02370004	    -47.91908680	      4.13378127	     -7.49999987	     -0.07542883	      4.08433019	      0.40124265	    164.15235354	      0.21384478	     76.88040453	     21.19085875	     57.99079624	    166.35238391	      3.46175239	     93.64603439	     15.28191044	     54.76495947
      2.58333330	    -14.06346774	     -3.69112662	      1.96892840	      0.28390666	      1.28914423	     -0.18908880	     10.61442754	     -5.96005882	    -16.23813628	      1.32336645	      0.02309710	    -46.36899519	      6.53255224	     -7.49999987	     15.23210723	     -9.34578119	     -8.11225044	      1.99666522	      0.03484838	    -47.92844951	      4.63158649	     -7.49999987	     -0.30402038	      3.76516007	      0.39084296	    164.22294014	     -0.13514738	     76.04576383	     21.04076259	     58.55233322	    166.18856836	      4.01178300	     92.44900597	     14.97302753	     54.93748822
      2.58750000	    -13.82869205	     -3.77214022	      2.57746479	      0.28345077	      1.29497492	     -0.18892854	     10.16577549	     -5.89321215	    -15.14816565	      1.31623248	      0.02297259	    -45.35664063	      8.67374531	     -7.49999987	     15.27390833	     -9.44896251	     -8.32238229	      2.23574938	      0.03902119	    -47.84793280	      5.19094975	     -7.49999987	     -0.36669601	      3.88728472	     -0.47235525	    164.11304394	      0.20174772	     76.02282142	     20.85099624	     58.76010676	    165.97634160	      3.70811548	     92.28236432	     15.02039772	     54.97828349
      2.59166670	    -13.85448257	     -4.13679101	      2.68720927	      0.28348148	      1.29564115	     -0.18976250	     10.29535146	     -5.59834643	    -13.92115802	      1.89096014	      0.03300348	    -44.08089562	     10.47820922	     -7.49999987	     15.38484400	     -9.77450364	     -8.17936121	      2.25689212	      0.03939020	    -47.07095343	      5.57261282	     -7.49999987	     -0.15477298	      4.26460220	     -0.66550110	    164.24290719	      0.79223633	     76.40167519	     19.12215019	     59.74285523	    165.62297002	      3.76953581	     89.95202127	     14.49226914	     55.87541190
